<svg id="Layer_1" data-name="Layer 1" xmlns="http://www.w3.org/2000/svg" xmlns:xlink="http://www.w3.org/1999/xlink" viewBox="0 0 1378.12 270"><defs><style>.cls-1,.cls-4,.cls-6,.cls-8,.cls-9{fill:none;}.cls-2{clip-path:url(#clip-path);}.cls-3{fill:#600;}.cls-4{stroke:#600;}.cls-4,.cls-6,.cls-8,.cls-9{stroke-miterlimit:10;}.cls-4,.cls-6,.cls-8{stroke-width:10px;}.cls-5{fill:#ffd739;}.cls-6,.cls-9{stroke:#ffd739;}.cls-7{fill:#f45905;}.cls-8{stroke:#f45905;}.cls-9{stroke-width:3px;}.cls-10{fill:#fffeed;}</style><clipPath id="clip-path" transform="translate(-45 -15)"><rect class="cls-1" width="300" height="300"/></clipPath></defs><title>logo</title><g class="cls-2"><g class="cls-2"><path class="cls-3" d="M215.15,280H84.85A34.85,34.85,0,0,1,50,245.15V54.85A34.85,34.85,0,0,1,84.85,20h130.3A34.85,34.85,0,0,1,250,54.85v190.3A34.85,34.85,0,0,1,215.15,280" transform="translate(-45 -15)"/><rect class="cls-4" x="5" y="5" width="200" height="260" rx="34.85"/><path class="cls-5" d="M187.41,111H112.59A17.6,17.6,0,0,1,95,93.41V59.6A17.6,17.6,0,0,1,112.59,42h74.82A17.6,17.6,0,0,1,205,59.6V93.41A17.6,17.6,0,0,1,187.41,111" transform="translate(-45 -15)"/><path class="cls-6" d="M67.59,27h74.81A17.59,17.59,0,0,1,160,44.59V78.4A17.6,17.6,0,0,1,142.4,96H67.59A17.59,17.59,0,0,1,50,78.41V44.59A17.59,17.59,0,0,1,67.59,27Z"/><path class="cls-7" d="M185.84,80H114.16A7.17,7.17,0,0,1,107,72.84V57.16A7.17,7.17,0,0,1,114.16,50h71.68A7.17,7.17,0,0,1,193,57.16V72.84A7.17,7.17,0,0,1,185.84,80" transform="translate(-45 -15)"/><rect class="cls-8" x="62" y="35" width="86" height="30" rx="7.16"/><path class="cls-7" d="M118,148.5A10.5,10.5,0,1,1,107.5,138,10.5,10.5,0,0,1,118,148.5" transform="translate(-45 -15)"/><circle class="cls-8" cx="62.5" cy="133.5" r="10.5"/><path class="cls-7" d="M117,196.5A10.5,10.5,0,1,1,106.5,186,10.5,10.5,0,0,1,117,196.5" transform="translate(-45 -15)"/><circle class="cls-8" cx="61.5" cy="181.5" r="10.5"/><path class="cls-7" d="M204,148.5A10.5,10.5,0,1,1,193.5,138,10.5,10.5,0,0,1,204,148.5" transform="translate(-45 -15)"/><circle class="cls-8" cx="148.5" cy="133.5" r="10.5"/><path class="cls-7" d="M203,196.5A10.5,10.5,0,1,1,192.5,186,10.5,10.5,0,0,1,203,196.5" transform="translate(-45 -15)"/><circle class="cls-8" cx="147.5" cy="181.5" r="10.5"/><path class="cls-7" d="M204,244.5A10.5,10.5,0,1,1,193.5,234,10.5,10.5,0,0,1,204,244.5" transform="translate(-45 -15)"/><circle class="cls-8" cx="148.5" cy="229.5" r="10.5"/><path class="cls-7" d="M117,245.5A10.5,10.5,0,1,1,106.5,235,10.5,10.5,0,0,1,117,245.5" transform="translate(-45 -15)"/><circle class="cls-8" cx="61.5" cy="230.5" r="10.5"/><path class="cls-5" d="M108.49,149.51h0a5.34,5.34,0,0,1-7.54.59l-3.74-3.2a5.35,5.35,0,0,1,7-8.13l3.74,3.2a5.34,5.34,0,0,1,.59,7.54" transform="translate(-45 -15)"/><path class="cls-9" d="M108.49,149.51h0a5.34,5.34,0,0,1-7.54.59l-3.74-3.2a5.35,5.35,0,0,1,7-8.13l3.74,3.2A5.34,5.34,0,0,1,108.49,149.51Z" transform="translate(-45 -15)"/><path class="cls-5" d="M118.49,206.51h0a5.35,5.35,0,0,1-7.54.59l-3.74-3.2a5.35,5.35,0,0,1,7-8.13l3.74,3.2a5.34,5.34,0,0,1,.59,7.54" transform="translate(-45 -15)"/><path class="cls-9" d="M118.49,206.51h0a5.35,5.35,0,0,1-7.54.59l-3.74-3.2a5.35,5.35,0,0,1,7-8.13l3.74,3.2A5.34,5.34,0,0,1,118.49,206.51Z" transform="translate(-45 -15)"/><path class="cls-5" d="M206.36,196.67h0a5.34,5.34,0,0,1-5.5,5.18l-4.93-.14a5.35,5.35,0,0,1,.32-10.69l4.92.15a5.33,5.33,0,0,1,5.19,5.5" transform="translate(-45 -15)"/><path class="cls-9" d="M206.36,196.67h0a5.34,5.34,0,0,1-5.5,5.18l-4.93-.14a5.35,5.35,0,0,1,.32-10.69l4.92.15A5.33,5.33,0,0,1,206.36,196.67Z" transform="translate(-45 -15)"/><path class="cls-5" d="M199.46,231.67h0a5.35,5.35,0,0,1,2,7.3L199,243.24a5.34,5.34,0,0,1-9.26-5.34l2.47-4.27a5.34,5.34,0,0,1,7.3-2" transform="translate(-45 -15)"/><path class="cls-9" d="M199.46,231.67h0a5.35,5.35,0,0,1,2,7.3L199,243.24a5.34,5.34,0,0,1-9.26-5.34l2.47-4.27A5.34,5.34,0,0,1,199.46,231.67Z" transform="translate(-45 -15)"/><path class="cls-5" d="M106.46,243.67h0a5.35,5.35,0,0,1,2,7.3L106,255.24a5.34,5.34,0,0,1-9.26-5.34l2.47-4.27a5.34,5.34,0,0,1,7.3-2" transform="translate(-45 -15)"/><path class="cls-9" d="M106.46,243.67h0a5.35,5.35,0,0,1,2,7.3L106,255.24a5.34,5.34,0,0,1-9.26-5.34l2.47-4.27A5.34,5.34,0,0,1,106.46,243.67Z" transform="translate(-45 -15)"/><path class="cls-5" d="M195.36,147.66h0a5.34,5.34,0,0,1-5.5,5.19l-4.93-.14a5.35,5.35,0,0,1,.32-10.69l4.92.14a5.34,5.34,0,0,1,5.19,5.5" transform="translate(-45 -15)"/><path class="cls-9" d="M195.36,147.66h0a5.34,5.34,0,0,1-5.5,5.19l-4.93-.14a5.35,5.35,0,0,1,.32-10.69l4.92.14A5.34,5.34,0,0,1,195.36,147.66Z" transform="translate(-45 -15)"/></g></g><path class="cls-10" d="M312,91.86h11.19V198.58H361.6v12.88H312Z" transform="translate(-45 -15)"/><path class="cls-10" d="M377.14,91.86h50.69v12.88h-39.5v37.48h33.32V155.1H388.33v43.48h40.84v12.88h-52Z" transform="translate(-45 -15)"/><path class="cls-10" d="M466.07,104.74H439.46V91.86h64.41v12.88H477.26V211.46H466.07Z" transform="translate(-45 -15)"/><path class="cls-10" d="M546.38,91.86h11.19V142h40.91V91.86h11.19v119.6H598.48V155.23H557.57v56.23H546.38Z" transform="translate(-45 -15)"/><path class="cls-10" d="M633.75,91.86h11.19v119.6H633.75Z" transform="translate(-45 -15)"/><path class="cls-10" d="M669,91.86h13.48l16.86,63.91c2.11,8.17,4.13,16.61,6.25,24.92h.53c2.12-8.31,4-16.75,6.08-24.92l16.66-63.91h13.48v119.6h-10.4V145.61c0-10.42.86-24.79,1.42-35.37h-.53l-7,27.28-16.56,61.87h-7.42l-16.64-61.87-7-27.28h-.54c.57,10.58,1.43,25,1.43,35.37v65.85H669Z" transform="translate(-45 -15)"/><path class="cls-10" d="M793.21,91.86h22c27,0,41.54,21.37,41.54,59.37s-14.5,60.23-41,60.23H793.21ZM814.38,199c20.55,0,30.81-17.52,30.81-47.75s-10.26-46.89-30.81-46.89h-10V199Z" transform="translate(-45 -15)"/><path class="cls-10" d="M875.62,91.86h11.19v119.6H875.62Z" transform="translate(-45 -15)"/><path class="cls-10" d="M910.86,91.86h50.69v12.88h-39.5v37.48h33.32V155.1H922.05v43.48h40.84v12.88h-52Z" transform="translate(-45 -15)"/><path class="cls-10" d="M1001.9,195.9l6.69-10.45c6.34,8.93,15.12,14.82,24.27,14.82,11.54,0,18.38-7.82,18.38-19.44,0-12.21-6.37-16.11-14.67-21l-12.63-7.58c-8.2-4.75-17.81-13.2-17.81-30.79,0-18.27,11.7-31.75,27.68-31.75,10.43,0,19.72,6.14,25.9,14.82l-5.93,9.78c-5.39-6.92-11.84-11.22-20-11.22-9.86,0-16.39,6.77-16.39,17.47,0,11.52,7.67,15.83,14.56,19.79l12.53,7.37c10.18,5.95,18.12,14.2,18.12,32,0,18.9-11.48,34-30,34C1020.32,213.65,1009.58,206.8,1001.9,195.9Z" transform="translate(-45 -15)"/><path class="cls-10" d="M1095.46,104.74h-26.61V91.86h64.41v12.88h-26.61V211.46h-11.19Z" transform="translate(-45 -15)"/><path class="cls-10" d="M1148.61,162.07V91.86h11.19v70.63c0,28.74,8.93,37.78,20.41,37.78,11.66,0,20.86-9,20.86-37.78V91.86h10.72v70.21c0,38.39-13.62,51.58-31.58,51.58S1148.61,200.46,1148.61,162.07Z" transform="translate(-45 -15)"/><path class="cls-10" d="M1235.4,91.86h22c27,0,41.54,21.37,41.54,59.37s-14.5,60.23-41,60.23h-22.5ZM1256.57,199c20.56,0,30.81-17.52,30.81-47.75s-10.25-46.89-30.81-46.89h-10V199Z" transform="translate(-45 -15)"/><path class="cls-10" d="M1317.81,91.86H1329v119.6h-11.19Z" transform="translate(-45 -15)"/><path class="cls-10" d="M1347.94,151.23c0-38.31,15.5-61.56,37.59-61.56s37.59,23.32,37.59,61.56-15.5,62.42-37.59,62.42S1347.94,189.54,1347.94,151.23Zm63.62,0c0-29.8-10.32-48.18-26-48.18s-26,18.38-26,48.18,10.33,49,26,49S1411.56,181,1411.56,151.23Z" transform="translate(-45 -15)"/></svg>